<?xml version="1.0" encoding="UTF-8"?>
<svg width="194px" height="20px" viewBox="0 0 194 20" version="1.1" xmlns="http://www.w3.org/2000/svg" xmlns:xlink="http://www.w3.org/1999/xlink">
    <!-- Generator: Sketch 52.2 (67145) - http://www.bohemiancoding.com/sketch -->
    <title>Group 2</title>
    <desc>Created with Sketch.</desc>
    <defs>
        <path d="M3,0 L189,0 C190.656854,-3.04359188e-16 192,1.34314575 192,3 L192,15 C192,16.6568542 190.656854,18 189,18 L3,18 C1.34314575,18 2.02906125e-16,16.6568542 0,15 L0,3 C-2.02906125e-16,1.34314575 1.34314575,-5.83819232e-16 3,-8.8817842e-16 Z" id="path-1"></path>
        <linearGradient x1="100%" y1="59.2374153%" x2="0%" y2="11.2540409%" id="linearGradient-3">
            <stop stop-color="#1A1A5F" offset="0%"></stop>
            <stop stop-color="#2C275E" offset="37.7664379%"></stop>
            <stop stop-color="#3C2872" offset="69.3980311%"></stop>
            <stop stop-color="#6A2BB0" offset="100%"></stop>
        </linearGradient>
        <radialGradient cx="6.02245809%" cy="32.8811756%" fx="6.02245809%" fy="32.8811756%" r="314.78445%" gradientTransform="translate(0.060225,0.328812),scale(0.299311,1.000000),rotate(8.715812),translate(-0.060225,-0.328812)" id="radialGradient-4">
            <stop stop-color="#EA4CB1" stop-opacity="0" offset="0.0699963873%"></stop>
            <stop stop-color="#4225FF" offset="100%"></stop>
        </radialGradient>
    </defs>
    <g id="Page-1" stroke="none" stroke-width="1" fill="none" fill-rule="evenodd">
        <g id="Artboard" transform="translate(-16.000000, -6.000000)">
            <g id="Group-2" transform="translate(17.000000, 6.000000)">
                <g id="Group" transform="translate(0.000000, 1.000000)">
                    <mask id="mask-2" fill="white">
                        <use xlink:href="#path-1"></use>
                    </mask>
                    <path stroke="#492F5C" d="M3,-0.5 L189,-0.5 C190.932997,-0.5 192.5,1.06700338 192.5,3 L192.5,15 C192.5,16.9329966 190.932997,18.5 189,18.5 L3,18.5 C1.06700338,18.5 -0.5,16.9329966 -0.5,15 L-0.5,3 C-0.5,1.06700338 1.06700338,-0.5 3,-0.5 Z"></path>
                    <g mask="url(#mask-2)" fill-rule="nonzero" id="Rectangle" stroke="#979797">
                        <g transform="translate(-15.000000, -23.000000)">
                            <path d="M0.5,0.5 L0.5,93.1842105 L312.5,93.1842105 L312.5,0.5 L0.5,0.5 Z" fill="url(#linearGradient-3)"></path>
                            <path d="M0.5,0.5 L0.5,93.1842105 L312.5,93.1842105 L312.5,0.5 L0.5,0.5 Z" fill="url(#radialGradient-4)" opacity="0.418024554"></path>
                        </g>
                    </g>
                </g>
                <path d="M173,0 L190,0 C191.656854,1.01453063e-16 193,1.34314575 193,3 L193,17 C193,18.6568542 191.656854,20 190,20 L173,20 L173,0 Z" id="Shape" fill="#731FC8" fill-rule="nonzero"></path>
                <path d="M9.20836875,5.329 L11.3793687,5.329 L14.5513687,14 L12.4063687,14 L11.7433687,12.011 L8.68836875,12.011 L8.02536875,14 L5.97136875,14 L9.20836875,5.329 Z M11.2753687,10.49 L10.2223687,7.214 L9.14336875,10.49 L11.2753687,10.49 Z M15.7702992,12.115 C15.9696336,12.2970009 16.2317976,12.4486661 16.5567992,12.57 C16.8818009,12.6913339 17.1959644,12.752 17.4992992,12.752 C17.776634,12.752 18.0062983,12.7173337 18.1882992,12.648 C18.3703002,12.5786663 18.4612992,12.4443343 18.4612992,12.245 C18.4612992,12.1669996 18.4417994,12.0955003 18.4027992,12.0305 C18.3637991,11.9654997 18.2922998,11.9048336 18.1882992,11.8485 C18.0842987,11.7921664 17.9391335,11.733667 17.7527992,11.673 C17.566465,11.612333 17.3303007,11.5430004 17.0442992,11.465 C16.8102981,11.404333 16.5784671,11.3241672 16.3487992,11.2245 C16.1191314,11.1248328 15.9154668,11.0013341 15.7377992,10.854 C15.5601317,10.7066659 15.4171331,10.529001 15.3087992,10.321 C15.2004654,10.112999 15.1462992,9.87033472 15.1462992,9.593 C15.1462992,9.30699857 15.2112986,9.04916781 15.3412992,8.8195 C15.4712999,8.58983218 15.6511314,8.39050084 15.8807992,8.2215 C16.1104671,8.05249915 16.3834643,7.92250045 16.6997992,7.8315 C17.0161342,7.74049955 17.3562974,7.695 17.7202992,7.695 C18.2403018,7.695 18.6952973,7.75349942 19.0852992,7.8705 C19.4753012,7.98750058 19.8349643,8.15866554 20.1642992,8.384 L19.3712992,9.619 C19.1719649,9.48899935 18.9444672,9.37200052 18.6887992,9.268 C18.4331313,9.16399948 18.1449675,9.112 17.8242992,9.112 C17.5382978,9.112 17.3302999,9.15316625 17.2002992,9.2355 C17.0702986,9.31783374 17.0052992,9.42833264 17.0052992,9.567 C17.0052992,9.76633433 17.1396312,9.91366619 17.4082992,10.009 C17.6769673,10.1043338 18.0409636,10.2126661 18.5002992,10.334 C19.1243024,10.5073342 19.5771312,10.7456651 19.8587992,11.049 C20.1404673,11.3523348 20.2812992,11.7553308 20.2812992,12.258 C20.2812992,12.5960017 20.2054667,12.8863321 20.0537992,13.129 C19.9021318,13.3716679 19.6984672,13.5731659 19.4427992,13.7335 C19.1871313,13.8938341 18.8968009,14.0129996 18.5717992,14.091 C18.2467976,14.1690004 17.9153009,14.208 17.5772992,14.208 C17.0312965,14.208 16.515635,14.1343341 16.0302992,13.987 C15.5449635,13.8396659 15.1506341,13.6143349 14.8472992,13.311 L15.7702992,12.115 Z M21.5522297,9.372 L20.5902297,9.372 L20.5902297,7.903 L21.5522297,7.903 L21.5522297,5.901 L23.4242297,5.901 L23.4242297,7.903 L24.9972297,7.903 L24.9972297,9.372 L23.4242297,9.372 L23.4242297,11.777 C23.4242297,12.0716681 23.4827292,12.2991659 23.5997297,12.4595 C23.7167303,12.6198341 23.9008952,12.7 24.1522297,12.7 C24.3428974,12.7 24.5075624,12.6675003 24.6462297,12.6025 C24.7848971,12.5374997 24.9148958,12.4616671 25.0362297,12.375 L25.7902297,13.519 C25.2008935,13.9870023 24.5595665,14.221 23.8662297,14.221 C23.4328942,14.221 23.0688979,14.1581673 22.7742297,14.0325 C22.4795616,13.9068327 22.2412307,13.7335011 22.0592297,13.5125 C21.8772288,13.2914989 21.7472301,13.0250016 21.6692297,12.713 C21.5912294,12.4009984 21.5522297,12.0543352 21.5522297,11.673 L21.5522297,9.372 Z M26.3461602,7.903 L28.1401602,7.903 L28.2051602,8.67 C28.361161,8.46199896 28.5756589,8.26266762 28.8486602,8.072 C29.1216616,7.88133238 29.4748247,7.786 29.9081602,7.786 C30.0728277,7.786 30.2136597,7.79466658 30.3306602,7.812 C30.4476608,7.82933342 30.562493,7.85966645 30.6751602,7.903 L30.3761602,9.554 C30.1854926,9.49333303 29.9601615,9.463 29.7001602,9.463 C29.258158,9.463 28.9006616,9.59516534 28.6276602,9.8595 C28.3546589,10.1238347 28.2181602,10.4986642 28.2181602,10.984 L28.2181602,14 L26.3461602,14 L26.3461602,7.903 Z M34.0130907,12.583 C34.2470919,12.583 34.4550898,12.5375005 34.6370907,12.4465 C34.8190917,12.3554995 34.9729235,12.2320008 35.0985907,12.076 C35.224258,11.9199992 35.3174238,11.744501 35.3780907,11.5495 C35.4387577,11.354499 35.4690907,11.153001 35.4690907,10.945 C35.4690907,10.736999 35.4387577,10.535501 35.3780907,10.3405 C35.3174238,10.145499 35.224258,9.97216743 35.0985907,9.8205 C34.9729235,9.66883257 34.8190917,9.54750045 34.6370907,9.4565 C34.4550898,9.36549954 34.2470919,9.32 34.0130907,9.32 C33.7790896,9.32 33.568925,9.36549954 33.3825907,9.4565 C33.1962565,9.54750045 33.0424247,9.66883257 32.9210907,9.8205 C32.7997568,9.97216743 32.7065911,10.145499 32.6415907,10.3405 C32.5765904,10.535501 32.5440907,10.736999 32.5440907,10.945 C32.5440907,11.153001 32.5765904,11.354499 32.6415907,11.5495 C32.7065911,11.744501 32.7997568,11.9199992 32.9210907,12.076 C33.0424247,12.2320008 33.1962565,12.3554995 33.3825907,12.4465 C33.568925,12.5375005 33.7790896,12.583 34.0130907,12.583 Z M30.7370907,10.945 C30.7370907,10.4943311 30.8172566,10.0718353 30.9775907,9.6775 C31.1379249,9.28316469 31.3610893,8.93866814 31.6470907,8.644 C31.9330922,8.34933186 32.2775887,8.11750084 32.6805907,7.9485 C33.0835928,7.77949915 33.527755,7.695 34.0130907,7.695 C34.4984265,7.695 34.9404221,7.77949915 35.3390907,7.9485 C35.7377594,8.11750084 36.0800893,8.34933186 36.3660907,8.644 C36.6520922,8.93866814 36.8752566,9.28316469 37.0355907,9.6775 C37.1959249,10.0718353 37.2760907,10.4943311 37.2760907,10.945 C37.2760907,11.3956689 37.1959249,11.8181647 37.0355907,12.2125 C36.8752566,12.6068353 36.6520922,12.9513319 36.3660907,13.246 C36.0800893,13.5406681 35.7377594,13.7746658 35.3390907,13.948 C34.9404221,14.1213342 34.4984265,14.208 34.0130907,14.208 C33.527755,14.208 33.0835928,14.1213342 32.6805907,13.948 C32.2775887,13.7746658 31.9330922,13.5406681 31.6470907,13.246 C31.3610893,12.9513319 31.1379249,12.6068353 30.9775907,12.2125 C30.8172566,11.8181647 30.7370907,11.3956689 30.7370907,10.945 Z M40.5199517,5.329 L46.3439517,5.329 L46.3439517,7.058 L42.4829517,7.058 L42.4829517,9.021 L45.4209517,9.021 L45.4209517,10.698 L42.4829517,10.698 L42.4829517,14 L40.5199517,14 L40.5199517,5.329 Z M49.4998822,12.583 C49.7338834,12.583 49.9418813,12.5375005 50.1238822,12.4465 C50.3058832,12.3554995 50.459715,12.2320008 50.5853822,12.076 C50.7110495,11.9199992 50.8042153,11.744501 50.8648822,11.5495 C50.9255492,11.354499 50.9558822,11.153001 50.9558822,10.945 C50.9558822,10.736999 50.9255492,10.535501 50.8648822,10.3405 C50.8042153,10.145499 50.7110495,9.97216743 50.5853822,9.8205 C50.459715,9.66883257 50.3058832,9.54750045 50.1238822,9.4565 C49.9418813,9.36549954 49.7338834,9.32 49.4998822,9.32 C49.2658811,9.32 49.0557165,9.36549954 48.8693822,9.4565 C48.683048,9.54750045 48.5292162,9.66883257 48.4078822,9.8205 C48.2865483,9.97216743 48.1933826,10.145499 48.1283822,10.3405 C48.0633819,10.535501 48.0308822,10.736999 48.0308822,10.945 C48.0308822,11.153001 48.0633819,11.354499 48.1283822,11.5495 C48.1933826,11.744501 48.2865483,11.9199992 48.4078822,12.076 C48.5292162,12.2320008 48.683048,12.3554995 48.8693822,12.4465 C49.0557165,12.5375005 49.2658811,12.583 49.4998822,12.583 Z M46.2238822,10.945 C46.2238822,10.4943311 46.3040481,10.0718353 46.4643822,9.6775 C46.6247164,9.28316469 46.8478808,8.93866814 47.1338822,8.644 C47.4198837,8.34933186 47.7643802,8.11750084 48.1673822,7.9485 C48.5703843,7.77949915 49.0145465,7.695 49.4998822,7.695 C49.985218,7.695 50.4272136,7.77949915 50.8258822,7.9485 C51.2245509,8.11750084 51.5668808,8.34933186 51.8528822,8.644 C52.1388837,8.93866814 52.3620481,9.28316469 52.5223822,9.6775 C52.6827164,10.0718353 52.7628822,10.4943311 52.7628822,10.945 C52.7628822,11.3956689 52.6827164,11.8181647 52.5223822,12.2125 C52.3620481,12.6068353 52.1388837,12.9513319 51.8528822,13.246 C51.5668808,13.5406681 51.2245509,13.7746658 50.8258822,13.948 C50.4272136,14.1213342 49.985218,14.208 49.4998822,14.208 C49.0145465,14.208 48.5703843,14.1213342 48.1673822,13.948 C47.7643802,13.7746658 47.4198837,13.5406681 47.1338822,13.246 C46.8478808,12.9513319 46.6247164,12.6068353 46.4643822,12.2125 C46.3040481,11.8181647 46.2238822,11.3956689 46.2238822,10.945 Z M53.6828127,7.903 L55.4768127,7.903 L55.5418127,8.67 C55.6978135,8.46199896 55.9123114,8.26266762 56.1853127,8.072 C56.4583141,7.88133238 56.8114772,7.786 57.2448127,7.786 C57.4094802,7.786 57.5503122,7.79466658 57.6673127,7.812 C57.7843133,7.82933342 57.8991455,7.85966645 58.0118127,7.903 L57.7128127,9.554 C57.5221451,9.49333303 57.296814,9.463 57.0368127,9.463 C56.5948105,9.463 56.2373141,9.59516534 55.9643127,9.8595 C55.6913114,10.1238347 55.5548127,10.4986642 55.5548127,10.984 L55.5548127,14 L53.6828127,14 L53.6828127,7.903 Z M58.6067432,7.903 L60.4007432,7.903 L60.4657432,8.579 C60.6564109,8.34499883 60.8990751,8.15000078 61.1937432,7.994 C61.4884114,7.83799922 61.8350746,7.76 62.2337432,7.76 C62.4764111,7.76 62.6930756,7.78599974 62.8837432,7.838 C63.0744109,7.89000026 63.2412425,7.95716626 63.3842432,8.0395 C63.527244,8.12183374 63.6529094,8.21283284 63.7612432,8.3125 C63.8695771,8.41216716 63.9584096,8.50966619 64.0277432,8.605 C64.2790778,8.33633199 64.5845748,8.12833407 64.9442432,7.981 C65.3039117,7.83366593 65.6787413,7.76 66.0687432,7.76 C66.8487471,7.76 67.4445745,7.98099779 67.8562432,8.423 C68.267912,8.86500221 68.4737432,9.46732952 68.4737432,10.23 L68.4737432,14 L66.6017432,14 L66.6017432,10.529 C66.6017432,10.1649982 66.5215774,9.88333433 66.3612432,9.684 C66.2009091,9.48466567 65.9604115,9.385 65.6397432,9.385 C65.2757414,9.385 64.985411,9.51066541 64.7687432,9.762 C64.5520755,10.0133346 64.4437432,10.333998 64.4437432,10.724 L64.4437432,14 L62.6367432,14 L62.6367432,10.529 C62.6367432,10.1649982 62.5565774,9.88333433 62.3962432,9.684 C62.2359091,9.48466567 61.9954115,9.385 61.6747432,9.385 C61.3194081,9.385 61.0312444,9.51066541 60.8102432,9.762 C60.5892421,10.0133346 60.4787432,10.333998 60.4787432,10.724 L60.4787432,14 L58.6067432,14 L58.6067432,7.903 Z M70.2646737,12.115 C70.4640081,12.2970009 70.7261721,12.4486661 71.0511737,12.57 C71.3761754,12.6913339 71.6903389,12.752 71.9936737,12.752 C72.2710085,12.752 72.5006728,12.7173337 72.6826737,12.648 C72.8646747,12.5786663 72.9556737,12.4443343 72.9556737,12.245 C72.9556737,12.1669996 72.9361739,12.0955003 72.8971737,12.0305 C72.8581736,11.9654997 72.7866743,11.9048336 72.6826737,11.8485 C72.5786732,11.7921664 72.433508,11.733667 72.2471737,11.673 C72.0608395,11.612333 71.8246752,11.5430004 71.5386737,11.465 C71.3046726,11.404333 71.0728416,11.3241672 70.8431737,11.2245 C70.6135059,11.1248328 70.4098413,11.0013341 70.2321737,10.854 C70.0545062,10.7066659 69.9115076,10.529001 69.8031737,10.321 C69.6948399,10.112999 69.6406737,9.87033472 69.6406737,9.593 C69.6406737,9.30699857 69.7056731,9.04916781 69.8356737,8.8195 C69.9656744,8.58983218 70.1455059,8.39050084 70.3751737,8.2215 C70.6048416,8.05249915 70.8778388,7.92250045 71.1941737,7.8315 C71.5105087,7.74049955 71.8506719,7.695 72.2146737,7.695 C72.7346763,7.695 73.1896718,7.75349942 73.5796737,7.8705 C73.9696757,7.98750058 74.3293388,8.15866554 74.6586737,8.384 L73.8656737,9.619 C73.6663394,9.48899935 73.4388417,9.37200052 73.1831737,9.268 C72.9275058,9.16399948 72.639342,9.112 72.3186737,9.112 C72.0326723,9.112 71.8246744,9.15316625 71.6946737,9.2355 C71.5646731,9.31783374 71.4996737,9.42833264 71.4996737,9.567 C71.4996737,9.76633433 71.6340057,9.91366619 71.9026737,10.009 C72.1713418,10.1043338 72.5353381,10.2126661 72.9946737,10.334 C73.6186769,10.5073342 74.0715057,10.7456651 74.3531737,11.049 C74.6348418,11.3523348 74.7756737,11.7553308 74.7756737,12.258 C74.7756737,12.5960017 74.6998412,12.8863321 74.5481737,13.129 C74.3965063,13.3716679 74.1928417,13.5731659 73.9371737,13.7335 C73.6815058,13.8938341 73.3911754,14.0129996 73.0661737,14.091 C72.7411721,14.1690004 72.4096754,14.208 72.0716737,14.208 C71.525671,14.208 71.0100095,14.1343341 70.5246737,13.987 C70.039338,13.8396659 69.6450086,13.6143349 69.3416737,13.311 L70.2646737,12.115 Z M78.0455347,5.329 L81.3215347,5.329 C81.9888714,5.329 82.6063652,5.4156658 83.1740347,5.589 C83.7417043,5.7623342 84.231366,6.02666489 84.6430347,6.382 C85.0547035,6.73733511 85.3753669,7.19233056 85.6050347,7.747 C85.8347026,8.30166944 85.9495347,8.95599623 85.9495347,9.71 C85.9495347,10.4293369 85.8325359,11.0554973 85.5985347,11.5885 C85.3645336,12.1215027 85.0417035,12.5678315 84.6300347,12.9275 C84.218366,13.2871685 83.7287043,13.5558324 83.1610347,13.7335 C82.5933652,13.9111676 81.9758714,14 81.3085347,14 L78.0455347,14 L78.0455347,5.329 Z M81.2045347,12.258 C82.0712057,12.258 82.7385324,12.0305023 83.2065347,11.5755 C83.6745371,11.1204977 83.9085347,10.4943373 83.9085347,9.697 C83.9085347,9.29833134 83.8543686,8.93650163 83.7460347,8.6115 C83.6377009,8.28649837 83.4730359,8.00916781 83.2520347,7.7795 C83.0310336,7.54983218 82.7515364,7.37216729 82.4135347,7.2465 C82.0755331,7.1208327 81.6725371,7.058 81.2045347,7.058 L80.0085347,7.058 L80.0085347,12.258 L81.2045347,12.258 Z M89.9634652,12.583 C90.1974664,12.583 90.4054643,12.5375005 90.5874652,12.4465 C90.7694662,12.3554995 90.923298,12.2320008 91.0489652,12.076 C91.1746325,11.9199992 91.2677983,11.744501 91.3284652,11.5495 C91.3891322,11.354499 91.4194652,11.153001 91.4194652,10.945 C91.4194652,10.736999 91.3891322,10.535501 91.3284652,10.3405 C91.2677983,10.145499 91.1746325,9.97216743 91.0489652,9.8205 C90.923298,9.66883257 90.7694662,9.54750045 90.5874652,9.4565 C90.4054643,9.36549954 90.1974664,9.32 89.9634652,9.32 C89.7294641,9.32 89.5192995,9.36549954 89.3329652,9.4565 C89.146631,9.54750045 88.9927992,9.66883257 88.8714652,9.8205 C88.7501313,9.97216743 88.6569656,10.145499 88.5919652,10.3405 C88.5269649,10.535501 88.4944652,10.736999 88.4944652,10.945 C88.4944652,11.153001 88.5269649,11.354499 88.5919652,11.5495 C88.6569656,11.744501 88.7501313,11.9199992 88.8714652,12.076 C88.9927992,12.2320008 89.146631,12.3554995 89.3329652,12.4465 C89.5192995,12.5375005 89.7294641,12.583 89.9634652,12.583 Z M86.6874652,10.945 C86.6874652,10.4943311 86.7676311,10.0718353 86.9279652,9.6775 C87.0882994,9.28316469 87.3114638,8.93866814 87.5974652,8.644 C87.8834667,8.34933186 88.2279632,8.11750084 88.6309652,7.9485 C89.0339673,7.77949915 89.4781295,7.695 89.9634652,7.695 C90.448801,7.695 90.8907966,7.77949915 91.2894652,7.9485 C91.6881339,8.11750084 92.0304638,8.34933186 92.3164652,8.644 C92.6024667,8.93866814 92.8256311,9.28316469 92.9859652,9.6775 C93.1462994,10.0718353 93.2264652,10.4943311 93.2264652,10.945 C93.2264652,11.3956689 93.1462994,11.8181647 92.9859652,12.2125 C92.8256311,12.6068353 92.6024667,12.9513319 92.3164652,13.246 C92.0304638,13.5406681 91.6881339,13.7746658 91.2894652,13.948 C90.8907966,14.1213342 90.448801,14.208 89.9634652,14.208 C89.4781295,14.208 89.0339673,14.1213342 88.6309652,13.948 C88.2279632,13.7746658 87.8834667,13.5406681 87.5974652,13.246 C87.3114638,12.9513319 87.0882994,12.6068353 86.9279652,12.2125 C86.7676311,11.8181647 86.6874652,11.3956689 86.6874652,10.945 Z M99.6193957,13.194 C99.3680612,13.4713347 99.0365645,13.7096657 98.6248957,13.909 C98.213227,14.1083343 97.7257319,14.208 97.1623957,14.208 C96.6683933,14.208 96.2198978,14.1278341 95.8168957,13.9675 C95.4138937,13.8071659 95.0693972,13.5818348 94.7833957,13.2915 C94.4973943,13.0011652 94.2742299,12.6566687 94.1138957,12.258 C93.9535616,11.8593313 93.8733957,11.4216691 93.8733957,10.945 C93.8733957,10.4943311 93.9557283,10.0718353 94.1203957,9.6775 C94.2850632,9.28316469 94.512561,8.93866814 94.8028957,8.644 C95.0932305,8.34933186 95.4398937,8.11750084 95.8428957,7.9485 C96.2458978,7.77949915 96.6857267,7.695 97.1623957,7.695 C97.7170652,7.695 98.1980604,7.78599909 98.6053957,7.968 C99.0127311,8.15000091 99.355061,8.39266515 99.6323957,8.696 L98.5013957,9.918 C98.3627284,9.76199922 98.1937301,9.62333394 97.9943957,9.502 C97.7950614,9.38066606 97.5307307,9.32 97.2013957,9.32 C96.9760613,9.32 96.7745633,9.36549954 96.5968957,9.4565 C96.4192282,9.54750045 96.267563,9.66666593 96.1418957,9.814 C96.0162285,9.96133407 95.9208961,10.132499 95.8558957,10.3275 C95.7908954,10.522501 95.7583957,10.7283322 95.7583957,10.945 C95.7583957,11.1443343 95.7908954,11.341499 95.8558957,11.5365 C95.9208961,11.731501 96.0162285,11.9048326 96.1418957,12.0565 C96.267563,12.2081674 96.4192282,12.3316662 96.5968957,12.427 C96.7745633,12.5223338 96.9760613,12.57 97.2013957,12.57 C97.522064,12.57 97.790728,12.5071673 98.0073957,12.3815 C98.2240635,12.2558327 98.3973951,12.1193341 98.5273957,11.972 L99.6193957,13.194 Z M100.266326,7.903 L102.138326,7.903 L102.138326,11.413 C102.138326,11.7596684 102.222825,12.0326657 102.391826,12.232 C102.560827,12.4313343 102.809991,12.531 103.139326,12.531 C103.329994,12.531 103.498992,12.494167 103.646326,12.4205 C103.79366,12.346833 103.919326,12.2493339 104.023326,12.128 C104.127327,12.0066661 104.205326,11.8636675 104.257326,11.699 C104.309327,11.5343325 104.335326,11.3653342 104.335326,11.192 L104.335326,7.903 L106.194326,7.903 L106.194326,14 L104.400326,14 L104.348326,13.35 C104.148992,13.5840012 103.886828,13.7768326 103.561826,13.9285 C103.236825,14.0801674 102.896661,14.156 102.541326,14.156 C101.839323,14.156 101.284662,13.9480021 100.877326,13.532 C100.469991,13.1159979 100.266326,12.5006707 100.266326,11.686 L100.266326,7.903 Z M107.400257,7.903 L109.194257,7.903 L109.259257,8.579 C109.449924,8.34499883 109.692589,8.15000078 109.987257,7.994 C110.281925,7.83799922 110.628588,7.76 111.027257,7.76 C111.269925,7.76 111.486589,7.78599974 111.677257,7.838 C111.867924,7.89000026 112.034756,7.95716626 112.177757,8.0395 C112.320757,8.12183374 112.446423,8.21283284 112.554757,8.3125 C112.663091,8.41216716 112.751923,8.50966619 112.821257,8.605 C113.072591,8.33633199 113.378088,8.12833407 113.737757,7.981 C114.097425,7.83366593 114.472255,7.76 114.862257,7.76 C115.642261,7.76 116.238088,7.98099779 116.649757,8.423 C117.061425,8.86500221 117.267257,9.46732952 117.267257,10.23 L117.267257,14 L115.395257,14 L115.395257,10.529 C115.395257,10.1649982 115.315091,9.88333433 115.154757,9.684 C114.994423,9.48466567 114.753925,9.385 114.433257,9.385 C114.069255,9.385 113.778924,9.51066541 113.562257,9.762 C113.345589,10.0133346 113.237257,10.333998 113.237257,10.724 L113.237257,14 L111.430257,14 L111.430257,10.529 C111.430257,10.1649982 111.350091,9.88333433 111.189757,9.684 C111.029423,9.48466567 110.788925,9.385 110.468257,9.385 C110.112922,9.385 109.824758,9.51066541 109.603757,9.762 C109.382756,10.0133346 109.272257,10.333998 109.272257,10.724 L109.272257,14 L107.400257,14 L107.400257,7.903 Z M124.193187,13.337 C124.123854,13.3803335 124.019855,13.4518328 123.881187,13.5515 C123.74252,13.6511672 123.562688,13.7486662 123.341687,13.844 C123.120686,13.9393338 122.858522,14.023833 122.555187,14.0975 C122.251852,14.171167 121.905189,14.208 121.515187,14.208 C120.995185,14.208 120.527189,14.1278341 120.111187,13.9675 C119.695185,13.8071659 119.342022,13.5840014 119.051687,13.298 C118.761352,13.0119986 118.540355,12.667502 118.388687,12.2645 C118.23702,11.861498 118.161187,11.4173358 118.161187,10.932 C118.161187,10.5073312 118.232687,10.0978353 118.375687,9.7035 C118.518688,9.30916469 118.724519,8.96466814 118.993187,8.67 C119.261855,8.37533186 119.591185,8.13916756 119.981187,7.9615 C120.371189,7.78383244 120.813185,7.695 121.307187,7.695 C121.80119,7.695 122.234519,7.7816658 122.607187,7.955 C122.979856,8.1283342 123.294019,8.3688318 123.549687,8.6765 C123.805355,8.9841682 123.998187,9.35249785 124.128187,9.7815 C124.258188,10.2105021 124.323187,10.6806641 124.323187,11.192 L124.323187,11.504 L119.981187,11.504 C119.989854,11.833335 120.135019,12.1214988 120.416687,12.3685 C120.698355,12.6155012 121.086185,12.739 121.580187,12.739 C122.065523,12.739 122.459852,12.6675007 122.763187,12.5245 C123.066522,12.3814993 123.28752,12.2580005 123.426187,12.154 L124.193187,13.337 Z M122.555187,10.308 C122.555187,10.1779994 122.529188,10.045834 122.477187,9.9115 C122.425187,9.77716599 122.347188,9.65366723 122.243187,9.541 C122.139187,9.42833277 122.009188,9.33516703 121.853187,9.2615 C121.697186,9.18783296 121.510855,9.151 121.294187,9.151 C121.077519,9.151 120.886855,9.18783296 120.722187,9.2615 C120.55752,9.33516703 120.421021,9.42833277 120.312687,9.541 C120.204353,9.65366723 120.122021,9.77716599 120.065687,9.9115 C120.009354,10.045834 119.981187,10.1779994 119.981187,10.308 L122.555187,10.308 Z M125.217118,7.903 L127.011118,7.903 L127.063118,8.566 C127.262452,8.32333212 127.524616,8.12833407 127.849618,7.981 C128.174619,7.83366593 128.514783,7.76 128.870118,7.76 C129.572121,7.76 130.128949,7.96799792 130.540618,8.384 C130.952286,8.80000208 131.158118,9.41532926 131.158118,10.23 L131.158118,14 L129.286118,14 L129.286118,10.49 C129.286118,10.1519983 129.201619,9.88333433 129.032618,9.684 C128.863617,9.48466567 128.627453,9.385 128.324118,9.385 C128.116117,9.385 127.934119,9.42183297 127.778118,9.4955 C127.622117,9.56916703 127.492118,9.66666606 127.388118,9.788 C127.284117,9.90933394 127.206118,10.0501659 127.154118,10.2105 C127.102117,10.3708341 127.076118,10.5419991 127.076118,10.724 L127.076118,14 L125.217118,14 L125.217118,7.903 Z M132.780048,9.372 L131.818048,9.372 L131.818048,7.903 L132.780048,7.903 L132.780048,5.901 L134.652048,5.901 L134.652048,7.903 L136.225048,7.903 L136.225048,9.372 L134.652048,9.372 L134.652048,11.777 C134.652048,12.0716681 134.710548,12.2991659 134.827548,12.4595 C134.944549,12.6198341 135.128714,12.7 135.380048,12.7 C135.570716,12.7 135.735381,12.6675003 135.874048,12.6025 C136.012716,12.5374997 136.142714,12.4616671 136.264048,12.375 L137.018048,13.519 C136.428712,13.9870023 135.787385,14.221 135.094048,14.221 C134.660713,14.221 134.296716,14.1581673 134.002048,14.0325 C133.70738,13.9068327 133.469049,13.7335011 133.287048,13.5125 C133.105047,13.2914989 132.975049,13.0250016 132.897048,12.713 C132.819048,12.4009984 132.780048,12.0543352 132.780048,11.673 L132.780048,9.372 Z M141.109979,13.428 C140.901978,13.6706679 140.639814,13.8569993 140.323479,13.987 C140.007144,14.1170006 139.653981,14.182 139.263979,14.182 C139.047311,14.182 138.819813,14.151667 138.581479,14.091 C138.343144,14.030333 138.122146,13.9285007 137.918479,13.7855 C137.714811,13.6424993 137.545813,13.4496679 137.411479,13.207 C137.277145,12.9643321 137.209979,12.6610018 137.209979,12.297 C137.209979,11.9416649 137.281478,11.6253347 137.424479,11.348 C137.567479,11.0706653 137.764644,10.8388343 138.015979,10.6525 C138.267313,10.4661657 138.564144,10.3253338 138.906479,10.23 C139.248814,10.1346662 139.61931,10.087 140.017979,10.087 C140.234646,10.087 140.453478,10.0913333 140.674479,10.1 C140.89548,10.1086667 141.040645,10.1216666 141.109979,10.139 L141.109979,10.009 C141.109979,9.85299922 141.077479,9.72083388 141.012479,9.6125 C140.947478,9.50416612 140.860813,9.41316703 140.752479,9.3395 C140.644145,9.26583296 140.520646,9.21383348 140.381979,9.1835 C140.243311,9.15316651 140.09598,9.138 139.939979,9.138 C139.523977,9.138 139.17948,9.18999948 138.906479,9.294 C138.633477,9.39800052 138.401646,9.51499935 138.210979,9.645 L137.443979,8.501 C137.573979,8.40566619 137.721311,8.31033381 137.885979,8.215 C138.050646,8.11966619 138.245644,8.03300039 138.470979,7.955 C138.696313,7.87699961 138.949811,7.81416691 139.231479,7.7665 C139.513147,7.7188331 139.835977,7.695 140.199979,7.695 C141.127317,7.695 141.811977,7.94416418 142.253979,8.4425 C142.695981,8.94083582 142.916979,9.61032913 142.916979,10.451 L142.916979,14 L141.161979,14 L141.109979,13.428 Z M141.109979,11.309 C141.066645,11.3003333 140.984313,11.2895001 140.862979,11.2765 C140.741645,11.2634999 140.60298,11.257 140.446979,11.257 C139.926976,11.257 139.558646,11.3306659 139.341979,11.478 C139.125311,11.6253341 139.016979,11.833332 139.016979,12.102 C139.016979,12.6046692 139.320309,12.856 139.926979,12.856 C140.074313,12.856 140.219478,12.8321669 140.362479,12.7845 C140.505479,12.7368331 140.631145,12.6696671 140.739479,12.583 C140.847813,12.4963329 140.936645,12.3880006 141.005979,12.258 C141.075312,12.1279993 141.109979,11.9763342 141.109979,11.803 L141.109979,11.309 Z M144.538909,9.372 L143.576909,9.372 L143.576909,7.903 L144.538909,7.903 L144.538909,5.901 L146.410909,5.901 L146.410909,7.903 L147.983909,7.903 L147.983909,9.372 L146.410909,9.372 L146.410909,11.777 C146.410909,12.0716681 146.469409,12.2991659 146.586409,12.4595 C146.70341,12.6198341 146.887575,12.7 147.138909,12.7 C147.329577,12.7 147.494242,12.6675003 147.632909,12.6025 C147.771577,12.5374997 147.901575,12.4616671 148.022909,12.375 L148.776909,13.519 C148.187573,13.9870023 147.546246,14.221 146.852909,14.221 C146.419574,14.221 146.055577,14.1581673 145.760909,14.0325 C145.466241,13.9068327 145.22791,13.7335011 145.045909,13.5125 C144.863908,13.2914989 144.73391,13.0250016 144.655909,12.713 C144.577909,12.4009984 144.538909,12.0543352 144.538909,11.673 L144.538909,9.372 Z M149.31984,5.329 L151.32184,5.329 L151.32184,7.006 L149.31984,7.006 L149.31984,5.329 Z M149.38484,7.903 L151.25684,7.903 L151.25684,14 L149.38484,14 L149.38484,7.903 Z M155.50477,12.583 C155.738771,12.583 155.946769,12.5375005 156.12877,12.4465 C156.310771,12.3554995 156.464603,12.2320008 156.59027,12.076 C156.715938,11.9199992 156.809103,11.744501 156.86977,11.5495 C156.930437,11.354499 156.96077,11.153001 156.96077,10.945 C156.96077,10.736999 156.930437,10.535501 156.86977,10.3405 C156.809103,10.145499 156.715938,9.97216743 156.59027,9.8205 C156.464603,9.66883257 156.310771,9.54750045 156.12877,9.4565 C155.946769,9.36549954 155.738771,9.32 155.50477,9.32 C155.270769,9.32 155.060605,9.36549954 154.87427,9.4565 C154.687936,9.54750045 154.534104,9.66883257 154.41277,9.8205 C154.291436,9.97216743 154.198271,10.145499 154.13327,10.3405 C154.06827,10.535501 154.03577,10.736999 154.03577,10.945 C154.03577,11.153001 154.06827,11.354499 154.13327,11.5495 C154.198271,11.744501 154.291436,11.9199992 154.41277,12.076 C154.534104,12.2320008 154.687936,12.3554995 154.87427,12.4465 C155.060605,12.5375005 155.270769,12.583 155.50477,12.583 Z M152.22877,10.945 C152.22877,10.4943311 152.308936,10.0718353 152.46927,9.6775 C152.629604,9.28316469 152.852769,8.93866814 153.13877,8.644 C153.424772,8.34933186 153.769268,8.11750084 154.17227,7.9485 C154.575272,7.77949915 155.019434,7.695 155.50477,7.695 C155.990106,7.695 156.432102,7.77949915 156.83077,7.9485 C157.229439,8.11750084 157.571769,8.34933186 157.85777,8.644 C158.143772,8.93866814 158.366936,9.28316469 158.52727,9.6775 C158.687604,10.0718353 158.76777,10.4943311 158.76777,10.945 C158.76777,11.3956689 158.687604,11.8181647 158.52727,12.2125 C158.366936,12.6068353 158.143772,12.9513319 157.85777,13.246 C157.571769,13.5406681 157.229439,13.7746658 156.83077,13.948 C156.432102,14.1213342 155.990106,14.208 155.50477,14.208 C155.019434,14.208 154.575272,14.1213342 154.17227,13.948 C153.769268,13.7746658 153.424772,13.5406681 153.13877,13.246 C152.852769,12.9513319 152.629604,12.6068353 152.46927,12.2125 C152.308936,11.8181647 152.22877,11.3956689 152.22877,10.945 Z M159.700701,7.903 L161.494701,7.903 L161.546701,8.566 C161.746035,8.32333212 162.008199,8.12833407 162.333201,7.981 C162.658202,7.83366593 162.998366,7.76 163.353701,7.76 C164.055704,7.76 164.612532,7.96799792 165.024201,8.384 C165.435869,8.80000208 165.641701,9.41532926 165.641701,10.23 L165.641701,14 L163.769701,14 L163.769701,10.49 C163.769701,10.1519983 163.685202,9.88333433 163.516201,9.684 C163.3472,9.48466567 163.111036,9.385 162.807701,9.385 C162.5997,9.385 162.417702,9.42183297 162.261701,9.4955 C162.1057,9.56916703 161.975701,9.66666606 161.871701,9.788 C161.7677,9.90933394 161.689701,10.0501659 161.637701,10.2105 C161.5857,10.3708341 161.559701,10.5419991 161.559701,10.724 L161.559701,14 L159.700701,14 L159.700701,7.903 Z" id="Astro-Forms-Document" fill="#FFFFFF"></path>
                <g id="arrow-right" transform="translate(176.000000, 5.000000)" fill="#FFFFFF" fill-rule="nonzero">
                    <path d="M1.55555556,5.82142857 C1.10905883,5.82142857 0.75,5.45211091 0.75,5 C0.75,4.54788909 1.10905883,4.17857143 1.55555556,4.17857143 L10.4444444,4.17857143 C10.8909412,4.17857143 11.25,4.54788909 11.25,5 C11.25,5.45211091 10.8909412,5.82142857 10.4444444,5.82142857 L1.55555556,5.82142857 Z M9.31009274,5 L6.53902528,2.14975919 C6.22773231,1.82957214 6.22773231,1.31328501 6.53902528,0.993097955 C6.85415226,0.668967348 7.36806996,0.668967348 7.68319694,0.993097955 L11.0165303,4.42166938 C11.3278232,4.74185644 11.3278232,5.25814356 11.0165303,5.57833062 L7.68319694,9.00690204 C7.36806996,9.33103265 6.85415226,9.33103265 6.53902528,9.00690204 C6.22773231,8.68671499 6.22773231,8.17042786 6.53902528,7.85024081 L9.31009274,5 Z" id="Combined-Shape"></path>
                </g>
            </g>
        </g>
    </g>
</svg>